<?xml version="1.0" encoding="utf-8"?>
<!-- Generator: Adobe Illustrator 24.0.2, SVG Export Plug-In . SVG Version: 6.00 Build 0)  -->
<svg version="1.1" id="Layer_1" xmlns="http://www.w3.org/2000/svg" xmlns:xlink="http://www.w3.org/1999/xlink" x="0px" y="0px"
	 viewBox="0 0 346.2 46.2" style="enable-background:new 0 0 346.2 46.2;" xml:space="preserve">
<style type="text/css">
	.st0{fill:#0F4C82;}
	.st1{fill:#FFFFFF;}
</style>
<g>
	<path class="st0" d="M44,34.1V12.2h6.8c1.1,0,2.1,0.2,3,0.5s1.7,0.8,2.3,1.4c0.6,0.6,1.2,1.3,1.5,2.2c0.4,0.9,0.5,1.8,0.5,2.8v8
		c0,1-0.2,2-0.5,2.8c-0.4,0.9-0.9,1.6-1.5,2.2c-0.6,0.6-1.4,1.1-2.3,1.4c-0.9,0.3-1.9,0.5-3,0.5H44z M50.8,30.6c1.1,0,2-0.3,2.6-1
		c0.6-0.6,1-1.5,1-2.5v-8c0-1-0.3-1.9-1-2.5c-0.6-0.6-1.5-0.9-2.6-0.9h-2.9v14.9H50.8z"/>
	<path class="st0" d="M63,34.1V12.2h13.5v3.3h-9.7v5.6h8.6v3.3h-8.6v6.2h9.7v3.3H63z"/>
	<path class="st0" d="M88.1,34.4c-1.1,0-2.1-0.1-3-0.4c-0.9-0.3-1.7-0.7-2.3-1.2c-0.6-0.5-1.2-1.2-1.5-1.9c-0.4-0.7-0.6-1.6-0.6-2.5
		h3.9c0,0.9,0.4,1.6,1,2.1c0.7,0.5,1.5,0.7,2.6,0.7c1.1,0,2-0.3,2.6-0.8c0.6-0.5,0.9-1.2,0.9-2c0-0.7-0.2-1.4-0.7-1.9s-1.1-1-2-1.2
		l-2.3-0.7c-3.8-1-5.7-3.2-5.7-6.5c0-0.9,0.2-1.7,0.5-2.5c0.3-0.7,0.8-1.4,1.4-1.9c0.6-0.5,1.3-0.9,2.2-1.2s1.9-0.4,3-0.4
		c2.1,0,3.7,0.5,5,1.6s2,2.5,2.1,4.4h-3.9c0-0.8-0.4-1.5-1-1.9c-0.6-0.5-1.4-0.7-2.3-0.7c-1,0-1.8,0.2-2.3,0.7
		c-0.6,0.5-0.9,1.1-0.9,1.9c0,1.5,0.9,2.4,2.6,2.9l2.4,0.7c1.8,0.5,3.2,1.3,4.2,2.5c1,1.1,1.4,2.6,1.4,4.2c0,1-0.2,1.8-0.5,2.6
		c-0.4,0.8-0.9,1.4-1.5,2c-0.6,0.5-1.4,1-2.3,1.3C90.3,34.2,89.3,34.4,88.1,34.4z"/>
	<path class="st0" d="M98.8,12.2h15.9v3.5h-6v18.4h-3.8V15.7h-6V12.2z"/>
	<path class="st0" d="M118.4,12.2h7.2c1.1,0,2.1,0.2,3,0.5c0.9,0.3,1.7,0.8,2.3,1.3c0.6,0.6,1.1,1.3,1.5,2.1
		c0.3,0.8,0.5,1.7,0.5,2.7c0,1.5-0.4,2.7-1.1,3.7c-0.7,1-1.7,1.8-3,2.3l4.4,9.3H129l-4-8.8h-2.8v8.8h-3.8V12.2z M122.2,22.2h3.4
		c1.1,0,1.9-0.3,2.5-0.9c0.6-0.6,0.9-1.4,0.9-2.5c0-1.1-0.3-1.9-0.9-2.5c-0.6-0.6-1.5-0.9-2.5-0.9h-3.4V22.2z"/>
	<path class="st0" d="M135.5,34.1l5.9-21.9h5.1l5.7,21.9h-3.9l-1.3-5.5h-6.4l-1.3,5.5H135.5z M141.4,25.5h4.9l-1.9-7.8
		c-0.1-0.4-0.2-0.7-0.2-1.1c-0.1-0.4-0.1-0.7-0.2-1c0-0.3-0.1-0.6-0.1-1h-0.2c0,0.3-0.1,0.6-0.1,1c0,0.3-0.1,0.6-0.2,1
		c-0.1,0.4-0.1,0.7-0.2,1.1L141.4,25.5z"/>
	<g>
		<g>
			<ellipse class="st0" cx="14.2" cy="9.2" rx="4.1" ry="4.2"/>
			<ellipse class="st0" cx="27.8" cy="9.2" rx="4.1" ry="4.2"/>
			<ellipse class="st0" cx="27.8" cy="24.5" rx="4.1" ry="4.2"/>
			<ellipse class="st0" cx="14.2" cy="24.5" rx="1.4" ry="1.4"/>
			<ellipse class="st0" cx="14.2" cy="39.7" rx="1.4" ry="1.4"/>
			<ellipse class="st0" cx="27.8" cy="39.7" rx="1.4" ry="1.4"/>
		</g>
	</g>
	<rect x="160.9" y="11.8" class="st0" width="175.3" height="22.5"/>
	<path class="st1" d="M168.4,32c-0.8,0-1.5-0.1-2.2-0.3c-0.7-0.2-1.3-0.5-1.7-0.9c-0.5-0.4-0.9-0.9-1.2-1.5c-0.3-0.6-0.4-1.2-0.4-2
		h2.3c0,0.4,0.1,0.8,0.3,1.1s0.4,0.6,0.7,0.9c0.3,0.2,0.7,0.4,1.1,0.6c0.4,0.1,0.8,0.2,1.3,0.2c1,0,1.8-0.2,2.4-0.7
		c0.6-0.5,0.9-1.1,0.9-1.9c0-0.7-0.2-1.3-0.7-1.8c-0.4-0.5-1.1-1-1.9-1.3l-1.8-0.7c-2.7-1-4-2.6-4-4.9c0-1.4,0.5-2.6,1.4-3.4
		c0.9-0.8,2.2-1.2,3.8-1.2c0.8,0,1.4,0.1,2.1,0.3c0.6,0.2,1.2,0.5,1.6,0.9c0.5,0.4,0.8,0.9,1.1,1.5c0.3,0.6,0.4,1.2,0.4,1.9h-2.3
		c0-0.4-0.1-0.8-0.2-1.1c-0.2-0.3-0.4-0.6-0.6-0.8c-0.3-0.2-0.6-0.4-0.9-0.5c-0.4-0.1-0.7-0.2-1.1-0.2c-0.9,0-1.6,0.2-2.2,0.7
		c-0.5,0.4-0.8,1-0.8,1.8c0,0.7,0.2,1.3,0.6,1.8c0.4,0.5,1,0.9,1.9,1.2l1.9,0.7c1.3,0.5,2.3,1.1,2.9,2c0.7,0.9,1,1.9,1,3.1
		c0,1.4-0.5,2.6-1.5,3.4C171.5,31.6,170.1,32,168.4,32z"/>
	<path class="st1" d="M185.8,19.4c0-0.8,0.1-1.5,0.4-2.1c0.2-0.6,0.6-1.2,1.1-1.6c0.5-0.4,1-0.8,1.7-1c0.7-0.2,1.4-0.4,2.2-0.4
		c0.8,0,1.6,0.1,2.2,0.4c0.7,0.2,1.2,0.6,1.7,1c0.5,0.5,0.8,1,1.1,1.6c0.2,0.6,0.4,1.4,0.4,2.1v7.5c0,0.8-0.1,1.5-0.4,2.1
		c-0.2,0.6-0.6,1.2-1.1,1.6c-0.5,0.4-1,0.8-1.7,1c-0.7,0.2-1.4,0.4-2.2,0.4c-0.8,0-1.6-0.1-2.2-0.4c-0.7-0.2-1.2-0.6-1.7-1
		c-0.5-0.4-0.8-1-1.1-1.6c-0.2-0.6-0.4-1.4-0.4-2.1V19.4z M188,26.8c0,1,0.3,1.8,0.8,2.4c0.6,0.6,1.3,0.9,2.3,0.9
		c1,0,1.7-0.3,2.3-0.9c0.6-0.6,0.8-1.4,0.8-2.4v-7.5c0-1-0.3-1.8-0.8-2.4c-0.6-0.6-1.3-0.9-2.3-0.9c-1,0-1.7,0.3-2.3,0.9
		c-0.6,0.6-0.8,1.4-0.8,2.4V26.8z"/>
	<path class="st1" d="M208.9,14.4h10.4v1.9H211V22h7.6v1.9H211v7.9h-2.2V14.4z"/>
	<path class="st1" d="M230.4,14.4h12.3v1.9h-5v15.5h-2.2V16.3h-5V14.4z"/>
	<path class="st1" d="M254.4,14.4l1.1,12.7c0,0.3,0.1,0.7,0.1,1c0,0.4,0,0.7,0,1.1c0,0.4,0,0.8,0,1.2h0.3c0-0.4,0.1-0.8,0.1-1.2
		c0-0.3,0.1-0.7,0.1-1.1c0-0.4,0.1-0.7,0.1-1l1.7-12.7h2.4l1.6,12.7c0,0.3,0.1,0.6,0.1,1c0,0.4,0.1,0.8,0.1,1.1
		c0,0.4,0.1,0.8,0.1,1.2h0.3c0-0.4,0-0.8,0-1.2c0-0.3,0-0.7,0-1.1c0-0.4,0-0.7,0.1-1l1.1-12.7h1.9L264,31.8h-2.9L259.6,19
		c0-0.5-0.1-0.9-0.1-1.3s0-0.7-0.1-1c0-0.3,0-0.6,0-0.9h-0.3c0,0.3,0,0.6,0,0.9c0,0.3,0,0.6-0.1,1c0,0.4-0.1,0.8-0.1,1.3l-1.6,12.8
		h-2.9l-1.7-17.4H254.4z"/>
	<path class="st1" d="M275.7,31.8l4.7-17.4h3l4.6,17.4h-2.3l-1.2-4.9h-5.3l-1.2,4.9H275.7z M279.7,25.1h4.4l-1.7-6.9
		c-0.1-0.3-0.2-0.6-0.2-0.9s-0.1-0.5-0.1-0.8c0-0.2-0.1-0.5-0.1-0.7h-0.1c0,0.2-0.1,0.4-0.1,0.7c0,0.2-0.1,0.5-0.1,0.8
		c-0.1,0.3-0.1,0.6-0.2,0.9L279.7,25.1z"/>
	<path class="st1" d="M305.1,14.4c0.8,0,1.5,0.1,2.1,0.4c0.6,0.2,1.2,0.6,1.7,1c0.5,0.5,0.8,1,1.1,1.6c0.2,0.6,0.4,1.3,0.4,2.1
		c0,1.2-0.3,2.2-0.9,3.1c-0.6,0.8-1.5,1.4-2.5,1.7l3.7,7.5H308l-3.4-7.2h-2.9v7.2h-2.2V14.4H305.1z M301.7,22.6h3.4
		c0.9,0,1.6-0.3,2.2-0.9c0.5-0.6,0.8-1.3,0.8-2.3s-0.3-1.7-0.8-2.3c-0.5-0.6-1.3-0.9-2.2-0.9h-3.4V22.6z"/>
	<path class="st1" d="M323.5,31.9V14.3h10.3v2h-8.1v5.5h7.3v2h-7.3v6.1h8.1v2H323.5z"/>
</g>
</svg>
